<?xml version="1.0" encoding="UTF-8" standalone="no"?><!DOCTYPE svg PUBLIC "-//W3C//DTD SVG 1.1//EN" "http://www.w3.org/Graphics/SVG/1.1/DTD/svg11.dtd"><svg width="100%" height="100%" viewBox="0 0 107 38" version="1.1" xmlns="http://www.w3.org/2000/svg" xmlns:xlink="http://www.w3.org/1999/xlink" xml:space="preserve" style="fill-rule:evenodd;clip-rule:evenodd;stroke-linejoin:round;stroke-miterlimit:1.41421;"><g><path d="M102.4,11.737l0.298,0.045l0.291,0.081l0.279,0.115l0.263,0.148l0.244,0.179l0.22,0.206l0.193,0.232l0.165,0.253l0.132,0.272l0.099,0.285l0.064,0.295l0.027,0.301l-0.008,0.301l-0.045,0.299l-0.081,0.291l-0.115,0.279l-0.148,0.263l-0.179,0.243l-0.206,0.22l-0.232,0.194l-0.253,0.164l-0.272,0.133l-0.285,0.099l-0.296,0.082l-0.299,0.083l-0.299,0.082l-0.3,0.08l-0.299,0.08l-0.298,0.078l-0.299,0.077l-0.299,0.076l-0.298,0.074l-0.298,0.074l-0.298,0.073l-0.298,0.071l-0.298,0.07l-0.298,0.07l-0.297,0.068l-0.298,0.067l-0.297,0.066l-0.297,0.065l-0.297,0.064l-0.297,0.063l-0.296,0.062l-0.297,0.061l-0.296,0.06l-0.296,0.059l-0.296,0.058l-0.296,0.056l-0.296,0.056l-0.296,0.055l-0.295,0.054l-0.296,0.053l-0.295,0.052l-0.295,0.051l-0.295,0.05l-0.295,0.049l-0.295,0.048l-0.294,0.047l-0.295,0.047l-0.294,0.045l-0.294,0.044l-0.294,0.044l-0.294,0.043l-0.294,0.041l-0.294,0.041l-0.293,0.04l-0.293,0.039l-0.294,0.039l-0.293,0.037l-0.293,0.037l-0.293,0.036l-0.293,0.034l-0.293,0.035l-0.292,0.033l-0.293,0.032l-0.292,0.032l-0.292,0.031l-0.294,0.03l-0.583,0.058l-0.583,0.054l-0.583,0.052l-0.583,0.049l-0.582,0.046l-0.582,0.043l-0.582,0.04l-0.581,0.037l-0.581,0.035l-0.58,0.032l-0.58,0.029l-0.58,0.028l-0.579,0.024l-0.579,0.022l-0.579,0.02l-0.579,0.018l-0.578,0.015l-0.578,0.013l-0.577,0.011l-0.578,0.009l-0.577,0.007l-0.577,0.005l-0.576,0.003l-0.577,0.001l-0.576,-0.001l-0.576,-0.002l-0.576,-0.004l-0.575,-0.006l-0.576,-0.007l-0.575,-0.008l-0.575,-0.01l-0.576,-0.012l-0.574,-0.013l-0.575,-0.014l-0.575,-0.016l-0.575,-0.016l-0.574,-0.018l-0.575,-0.019l-0.574,-0.019l-0.575,-0.021l-0.574,-0.022l-0.575,-0.022l-0.574,-0.024l-0.575,-0.024l-1.149,-0.05l-1.149,-0.052l-1.149,-0.055l-1.15,-0.055l-2.3,-0.115l-2.305,-0.115l-1.153,-0.056l-1.154,-0.056l-1.155,-0.054l-1.156,-0.052l-1.158,-0.049l-0.579,-0.024l-0.58,-0.023l-0.579,-0.023l-0.581,-0.021l-0.581,-0.02l-0.581,-0.02l-0.581,-0.018l-0.582,-0.018l-0.582,-0.016l-0.583,-0.015l-0.583,-0.014l-0.584,-0.013l-0.585,-0.011l-0.584,-0.01l-0.585,-0.009l-0.586,-0.007l-0.587,-0.005l-0.586,-0.004l-0.588,-0.002l-0.588,-0.001l-0.588,0.001l-0.589,0.003l-0.59,0.005l-0.591,0.007l-0.591,0.008l-0.591,0.011l-0.593,0.012l-0.593,0.015l-0.594,0.017l-0.604,0.02l-0.17,0.004l-0.198,0.004l-0.216,0.002l-0.236,0.002l-0.256,0l-0.277,0l-0.607,-0.003l-0.682,-0.004l-0.749,-0.006l-1.676,-0.014l-0.913,-0.007l-0.954,-0.006l-0.988,-0.004l-1.017,-0.002l-0.515,0l-0.52,0.001l-0.524,0.001l-0.526,0.003l-0.528,0.003l-0.528,0.005l-0.529,0.005l-0.527,0.007l-0.525,0.008l-0.523,0.009l-0.519,0.011l-0.514,0.012l-0.509,0.014l-0.502,0.016l-0.494,0.017l-0.487,0.019l-0.477,0.02l-0.467,0.023l-0.455,0.024l-0.446,0.027l-0.214,0.014l-0.213,0.014l-0.21,0.015l-0.206,0.016l-0.202,0.016l-0.198,0.016l-0.193,0.017l-0.19,0.017l-0.184,0.018l-0.18,0.019l-0.176,0.019l-0.17,0.019l-0.165,0.02l-0.16,0.02l-0.153,0.021l-0.149,0.021l-0.141,0.021l-0.136,0.022l-0.129,0.022l-0.121,0.022l-0.115,0.022l-0.107,0.021l-0.098,0.022l-0.09,0.021l-0.081,0.02l-0.071,0.019l-0.001,0l-0.017,0.017l-0.24,0.182l-0.261,0.151l-0.278,0.119l-0.29,0.085l-0.297,0.049l-0.302,0.014l-0.301,-0.024l-0.296,-0.059l-0.287,-0.095l-0.273,-0.129l-0.255,-0.16l-0.235,-0.191l-0.21,-0.217l-0.182,-0.241l-0.151,-0.261l-0.119,-0.277l-0.085,-0.29l-0.05,-0.298l-0.013,-0.301l0.024,-0.301l0.059,-0.296l0.095,-0.287l0.129,-0.273l0.052,-0.095l0.099,-0.156l0.104,-0.143l0.107,-0.13l0.104,-0.114l0.105,-0.104l0.105,-0.095l0.101,-0.084l0.1,-0.077l0.097,-0.069l0.095,-0.063l0.093,-0.057l0.09,-0.053l0.09,-0.05l0.088,-0.045l0.084,-0.041l0.085,-0.04l0.085,-0.037l0.082,-0.035l0.09,-0.036l0.152,-0.056l0.161,-0.055l0.16,-0.051l0.16,-0.046l0.161,-0.044l0.163,-0.04l0.164,-0.039l0.167,-0.036l0.169,-0.034l0.172,-0.033l0.175,-0.032l0.177,-0.03l0.181,-0.029l0.184,-0.027l0.187,-0.027l0.191,-0.026l0.193,-0.024l0.197,-0.024l0.201,-0.023l0.203,-0.022l0.207,-0.021l0.21,-0.02l0.213,-0.02l0.216,-0.019l0.219,-0.018l0.222,-0.018l0.225,-0.017l0.228,-0.016l0.231,-0.015l0.235,-0.016l0.471,-0.028l0.484,-0.026l0.492,-0.023l0.501,-0.022l0.508,-0.02l0.515,-0.018l0.521,-0.016l0.525,-0.014l0.531,-0.013l0.533,-0.011l0.536,-0.009l0.539,-0.009l0.539,-0.007l0.539,-0.005l0.539,-0.005l0.537,-0.003l0.535,-0.003l0.532,-0.001l0.528,-0.001l0.524,0l1.027,0.002l0.998,0.004l0.962,0.006l0.918,0.007l1.677,0.014l0.746,0.006l0.672,0.004l0.593,0.003l0.262,0l0.239,0l0.213,-0.002l0.187,-0.002l0.156,-0.002l0.133,-0.004l0.603,-0.02l0.612,-0.017l0.61,-0.015l0.61,-0.013l0.609,-0.011l0.607,-0.009l0.607,-0.007l0.606,-0.005l0.604,-0.003l0.604,-0.001l0.602,0.001l0.602,0.002l0.601,0.004l0.599,0.005l0.599,0.008l0.598,0.008l0.596,0.011l0.596,0.011l0.595,0.013l0.594,0.014l0.594,0.016l0.592,0.016l0.591,0.018l0.591,0.019l0.59,0.02l0.588,0.02l0.589,0.022l0.587,0.023l0.586,0.023l0.586,0.024l1.168,0.05l1.166,0.052l1.163,0.055l1.16,0.056l1.157,0.057l2.306,0.115l2.297,0.114l1.144,0.055l1.142,0.054l1.14,0.052l1.139,0.05l0.568,0.024l0.568,0.023l0.567,0.022l0.567,0.021l0.566,0.021l0.566,0.019l0.565,0.019l0.565,0.017l0.565,0.016l0.564,0.016l0.564,0.013l0.564,0.013l0.563,0.011l0.563,0.01l0.562,0.009l0.562,0.007l0.562,0.005l0.562,0.004l0.561,0.002l0.561,0.001l0.56,-0.001l0.561,-0.003l0.56,-0.005l0.56,-0.007l0.56,-0.008l0.559,-0.011l0.56,-0.013l0.559,-0.014l0.559,-0.017l0.559,-0.019l0.558,-0.022l0.559,-0.024l0.558,-0.026l0.559,-0.028l0.558,-0.031l0.558,-0.033l0.558,-0.036l0.559,-0.039l0.558,-0.041l0.558,-0.044l0.558,-0.047l0.558,-0.049l0.558,-0.052l0.56,-0.056l0.277,-0.028l0.279,-0.03l0.279,-0.03l0.28,-0.031l0.279,-0.032l0.279,-0.032l0.279,-0.033l0.279,-0.035l0.28,-0.034l0.279,-0.036l0.279,-0.037l0.28,-0.037l0.279,-0.038l0.279,-0.039l0.28,-0.04l0.279,-0.04l0.28,-0.042l0.28,-0.042l0.279,-0.043l0.28,-0.044l0.28,-0.045l0.28,-0.045l0.279,-0.047l0.28,-0.048l0.28,-0.048l0.28,-0.049l0.281,-0.05l0.28,-0.051l0.28,-0.052l0.28,-0.053l0.281,-0.054l0.28,-0.055l0.281,-0.056l0.28,-0.056l0.281,-0.058l0.281,-0.059l0.281,-0.059l0.281,-0.061l0.281,-0.061l0.281,-0.063l0.281,-0.063l0.281,-0.065l0.282,-0.065l0.281,-0.067l0.282,-0.067l0.282,-0.069l0.282,-0.07l0.282,-0.07l0.282,-0.072l0.282,-0.073l0.282,-0.074l0.283,-0.075l0.282,-0.075l0.283,-0.078l0.282,-0.078l0.287,-0.08l0.295,-0.064l0.301,-0.027l0.302,0.008Zm-96.766,7.68l0.024,-0.032l0.072,-0.113l0.028,-0.052l-0.124,0.197Z" style="fill:#ffe400;"/><path d="M103.774,13.14l0.148,0.015l0.146,0.023l0.145,0.032l0.142,0.041l0.14,0.049l0.137,0.057l0.133,0.065l0.129,0.073l0.124,0.081l0.119,0.088l0.114,0.094l0.109,0.102l0.102,0.107l0.095,0.113l0.089,0.119l0.081,0.124l0.074,0.128l0.066,0.133l0.058,0.136l0.05,0.14l0.042,0.142l0.033,0.144l0.025,0.146l0.016,0.148l0.007,0.148l-0.002,0.148l-0.01,0.148l-0.02,0.147l-0.027,0.145l-0.037,0.144l-0.045,0.141l-0.053,0.138l-0.061,0.135l-0.069,0.131l-0.077,0.127l-0.084,0.122l-0.091,0.117l-0.098,0.111l-0.105,0.105l-0.11,0.099l-0.116,0.092l-0.122,0.085l-0.341,0.224l-0.35,0.228l-0.355,0.23l-0.359,0.232l-0.363,0.233l-0.368,0.235l-0.745,0.474l-1.53,0.97l-0.781,0.497l-0.392,0.25l-0.394,0.253l-0.396,0.255l-0.397,0.256l-0.397,0.259l-0.398,0.26l-0.399,0.263l-0.398,0.264l-0.398,0.266l-0.398,0.268l-0.397,0.27l-0.396,0.272l-0.394,0.274l-0.394,0.276l-0.391,0.277l-0.391,0.281l-0.192,0.14l-0.193,0.141l-0.193,0.141l-0.192,0.142l-0.191,0.142l-0.19,0.143l-0.19,0.144l-0.188,0.143l-0.188,0.145l-0.187,0.144l-0.186,0.146l-0.185,0.145l-0.185,0.146l-0.183,0.147l-0.182,0.147l-0.181,0.147l-0.179,0.147l-0.179,0.149l-0.178,0.149l-0.176,0.148l-0.175,0.15l-0.174,0.15l-0.172,0.15l-0.171,0.151l-0.17,0.151l-0.168,0.151l-0.167,0.152l-0.165,0.153l-0.164,0.152l-0.162,0.153l-0.161,0.153l-0.159,0.154l-0.158,0.154l-0.155,0.154l-0.154,0.155l-0.153,0.155l-0.15,0.156l-0.149,0.155l-0.147,0.157l-0.145,0.156l-0.143,0.156l-0.141,0.157l-0.139,0.157l-0.137,0.157l-0.135,0.158l-0.133,0.158l-0.131,0.158l-0.129,0.158l-0.127,0.159l-0.125,0.159l-0.123,0.159l-0.12,0.159l-0.118,0.159l-0.116,0.159l-0.113,0.16l-0.111,0.16l-0.109,0.16l-0.107,0.16l-0.104,0.16l-0.102,0.16l-0.099,0.16l-0.097,0.161l-0.094,0.16l-0.093,0.161l-0.089,0.16l-0.087,0.161l-0.085,0.161l-0.089,0.175l-0.071,0.13l-0.079,0.125l-0.086,0.121l-0.093,0.115l-0.1,0.11l-0.106,0.103l-0.112,0.097l-0.118,0.09l-0.122,0.083l-0.128,0.076l-0.131,0.068l-0.136,0.06l-0.139,0.052l-0.141,0.043l-0.144,0.036l-0.146,0.026l-0.147,0.018l-0.148,0.009l-0.148,0.001l-0.148,-0.009l-0.147,-0.017l-0.146,-0.026l-0.144,-0.034l-0.142,-0.043l-0.139,-0.052l-0.136,-0.059l-0.132,-0.067l-0.127,-0.075l-0.124,-0.083l-0.118,-0.089l-0.112,-0.097l-0.107,-0.103l-0.1,-0.109l-0.093,-0.115l-0.087,-0.12l-0.08,-0.125l-0.071,-0.13l-0.064,-0.133l-0.056,-0.137l-0.048,-0.141l-0.04,-0.143l-0.031,-0.144l-0.022,-0.147l-0.013,-0.147l-0.005,-0.149l0.004,-0.148l0.013,-0.147l0.021,-0.147l0.031,-0.145l0.038,-0.143l0.047,-0.14l0.056,-0.138l0.063,-0.134l0.104,-0.203l0.113,-0.215l0.116,-0.214l0.119,-0.213l0.121,-0.212l0.124,-0.21l0.126,-0.209l0.129,-0.208l0.131,-0.206l0.134,-0.206l0.136,-0.204l0.138,-0.202l0.14,-0.202l0.142,-0.2l0.145,-0.199l0.146,-0.198l0.149,-0.197l0.151,-0.195l0.152,-0.194l0.155,-0.193l0.156,-0.192l0.159,-0.191l0.16,-0.19l0.162,-0.189l0.163,-0.187l0.166,-0.187l0.166,-0.186l0.169,-0.184l0.17,-0.184l0.172,-0.182l0.173,-0.181l0.175,-0.181l0.176,-0.179l0.177,-0.178l0.18,-0.178l0.18,-0.176l0.181,-0.176l0.183,-0.174l0.184,-0.174l0.186,-0.173l0.186,-0.172l0.188,-0.17l0.189,-0.17l0.19,-0.169l0.191,-0.168l0.192,-0.168l0.192,-0.166l0.194,-0.166l0.195,-0.164l0.196,-0.164l0.196,-0.163l0.198,-0.162l0.198,-0.162l0.199,-0.16l0.199,-0.16l0.201,-0.159l0.201,-0.158l0.201,-0.157l0.203,-0.157l0.202,-0.155l0.204,-0.155l0.204,-0.154l0.204,-0.154l0.205,-0.152l0.205,-0.152l0.205,-0.151l0.206,-0.151l0.208,-0.15l0.412,-0.296l0.414,-0.294l0.414,-0.291l0.415,-0.288l0.416,-0.285l0.415,-0.282l0.414,-0.279l0.414,-0.277l0.413,-0.274l0.411,-0.271l0.411,-0.268l0.408,-0.266l0.407,-0.263l0.404,-0.26l0.401,-0.257l0.4,-0.255l0.787,-0.501l1.53,-0.971l0.738,-0.469l0.36,-0.23l0.355,-0.228l0.35,-0.225l0.343,-0.223l0.336,-0.219l0.334,-0.22l0.126,-0.077l0.131,-0.07l0.134,-0.062l0.138,-0.055l0.141,-0.045l0.143,-0.038l0.146,-0.029l0.146,-0.02l0.148,-0.012l0.148,-0.002l0.148,0.006Z" style="fill:#ffe400;"/><path d="M77.453,0.732l0.159,0.017l0.158,0.028l0.156,0.038l0.152,0.048l0.15,0.057l0.146,0.067l0.383,0.192l0.38,0.188l0.382,0.187l0.384,0.186l0.385,0.185l0.387,0.184l0.389,0.183l0.39,0.182l0.392,0.182l0.393,0.181l0.395,0.18l0.397,0.18l0.398,0.179l0.399,0.178l0.4,0.178l0.402,0.178l0.404,0.177l0.403,0.176l0.814,0.353l0.818,0.352l0.822,0.352l0.826,0.351l0.829,0.351l1.671,0.706l0.839,0.355l0.843,0.356l0.845,0.359l0.847,0.361l0.849,0.364l0.85,0.368l0.427,0.185l0.426,0.186l0.427,0.188l0.427,0.188l0.427,0.19l0.427,0.19l0.427,0.192l0.427,0.194l0.428,0.194l0.427,0.196l0.428,0.198l0.427,0.199l0.428,0.2l0.427,0.203l0.427,0.203l0.427,0.206l0.427,0.207l0.427,0.209l0.426,0.211l0.422,0.211l0.141,0.076l0.135,0.085l0.131,0.094l0.123,0.102l0.117,0.109l0.11,0.117l0.102,0.124l0.094,0.129l0.086,0.136l0.076,0.141l0.068,0.145l0.058,0.15l0.048,0.152l0.038,0.156l0.028,0.158l0.019,0.159l0.008,0.16l-0.003,0.16l-0.012,0.16l-0.023,0.159l-0.033,0.156l-0.043,0.155l-0.053,0.151l-0.062,0.148l-0.072,0.143l-0.081,0.139l-0.089,0.133l-0.098,0.127l-0.105,0.12l-0.114,0.114l-0.12,0.106l-0.126,0.098l-0.133,0.089l-0.139,0.081l-0.143,0.072l-0.147,0.063l-0.151,0.053l-0.155,0.044l-0.156,0.033l-0.159,0.023l-0.16,0.013l-0.16,0.003l-0.16,-0.007l-0.159,-0.018l-0.158,-0.028l-0.156,-0.038l-0.153,-0.048l-0.149,-0.057l-0.146,-0.067l-0.413,-0.207l-0.409,-0.202l-0.409,-0.201l-0.411,-0.2l-0.411,-0.198l-0.413,-0.196l-0.412,-0.195l-0.414,-0.194l-0.413,-0.193l-0.415,-0.192l-0.415,-0.19l-0.416,-0.189l-0.416,-0.188l-0.416,-0.187l-0.417,-0.187l-0.417,-0.185l-0.418,-0.184l-0.418,-0.184l-0.418,-0.182l-0.418,-0.182l-0.838,-0.362l-0.838,-0.36l-0.838,-0.357l-0.839,-0.356l-0.838,-0.355l-0.838,-0.354l-1.674,-0.707l-0.835,-0.353l-0.833,-0.355l-0.832,-0.356l-0.83,-0.357l-0.827,-0.359l-0.414,-0.18l-0.412,-0.181l-0.412,-0.182l-0.41,-0.183l-0.411,-0.183l-0.409,-0.184l-0.408,-0.185l-0.408,-0.187l-0.407,-0.187l-0.406,-0.188l-0.405,-0.189l-0.404,-0.19l-0.403,-0.192l-0.401,-0.193l-0.401,-0.194l-0.4,-0.196l-0.398,-0.197l-0.393,-0.196l-0.141,-0.076l-0.136,-0.085l-0.13,-0.094l-0.124,-0.101l-0.117,-0.11l-0.11,-0.116l-0.102,-0.124l-0.094,-0.13l-0.085,-0.135l-0.077,-0.141l-0.067,-0.146l-0.058,-0.149l-0.048,-0.153l-0.039,-0.155l-0.028,-0.158l-0.018,-0.159l-0.008,-0.16l0.002,-0.161l0.013,-0.159l0.022,-0.159l0.033,-0.157l0.043,-0.154l0.053,-0.152l0.062,-0.147l0.072,-0.144l0.081,-0.138l0.089,-0.133l0.098,-0.127l0.105,-0.121l0.113,-0.113l0.121,-0.106l0.126,-0.098l0.133,-0.09l0.138,-0.081l0.143,-0.072l0.148,-0.063l0.151,-0.053l0.154,-0.043l0.157,-0.034l0.159,-0.023l0.159,-0.013l0.161,-0.003l0.16,0.008Z" style="fill:#ffe400;"/></g></svg>